<?xml version="1.0" standalone="no"?>
<!DOCTYPE svg PUBLIC "-//W3C//DTD SVG 20010904//EN"
 "http://www.w3.org/TR/2001/REC-SVG-20010904/DTD/svg10.dtd">
<svg version="1.0" xmlns="http://www.w3.org/2000/svg"
 width="512.000000pt" height="512.000000pt" viewBox="0 0 512.000000 512.000000"
 preserveAspectRatio="xMidYMid meet">
<metadata>
Created by potrace 1.11, written by Peter Selinger 2001-2013
</metadata>
<g transform="translate(0.000000,512.000000) scale(0.100000,-0.100000)"
fill="#000000" stroke="none">
<path d="M0 2560 l0 -2560 2560 0 2560 0 0 2560 0 2560 -2560 0 -2560 0 0
-2560z m2975 1395 c181 -37 288 -90 395 -195 102 -100 176 -248 195 -392 l6
-48 -159 0 -159 0 -7 52 c-16 115 -87 215 -194 271 -95 50 -174 67 -317 67
-153 0 -237 -18 -351 -75 -249 -122 -409 -413 -459 -835 -60 -503 61 -983 308
-1223 72 -69 209 -141 312 -162 90 -19 290 -19 378 0 174 37 303 166 323 323
l7 52 159 0 159 0 -6 -52 c-25 -212 -166 -413 -355 -505 -286 -140 -718 -134
-1013 13 -257 128 -444 346 -545 635 -128 365 -131 945 -7 1324 85 261 235
460 449 600 134 88 318 151 491 169 81 8 312 -3 390 -19z"/>
</g>
</svg>
